<?xml version="1.0" encoding="UTF-8"?><svg id="a" xmlns="http://www.w3.org/2000/svg" viewBox="0 0 1080 1080"><defs><style>.b{fill:none;stroke:#ee4d2d;stroke-miterlimit:10;stroke-width:14px;}.c{fill:#ee4d2d;}</style></defs><path class="b" d="M720.63,281.32H383.78c-37.2,0-67.36,39.09-67.36,87.3v249.01c0,48.21,30.16,87.3,67.36,87.3h34.23c11.68,30.68,16.2,71.58-23.06,99.71,0,0,102.98-33.52,121.74-99.71h203.94c37.2,0,67.37-39.09,67.37-87.3v-249.01c0-48.22-30.16-87.3-67.37-87.3Z"/><g><rect class="c" x="443.81" y="472.72" width="136.65" height="34.7" rx="8.98" ry="8.98"/><rect class="c" x="442.72" y="401.86" width="33.98" height="105.57" rx="8.79" ry="8.79"/><rect class="c" x="404.05" y="553.7" width="144.6" height="31.09"/><rect class="c" x="539.62" y="473.72" width="33.98" height="112.59" rx="8.79" ry="8.79" transform="translate(147.54 -120.67) rotate(14.25)"/><rect class="c" x="621.9" y="528.52" width="30.37" height="65.95" transform="translate(1198.57 -75.59) rotate(90)"/><rect class="c" x="624.5" y="393.18" width="30.37" height="215.32" transform="translate(1451.47 532.9) rotate(144.2)"/><rect class="c" x="533.86" y="379.71" width="30.37" height="74.53" rx=".24" ry=".24" transform="translate(966.02 -132.06) rotate(90)"/></g></svg>